<?xml version="1.0" standalone="no"?>
<!DOCTYPE svg PUBLIC "-//W3C//DTD SVG 20010904//EN"
 "http://www.w3.org/TR/2001/REC-SVG-20010904/DTD/svg10.dtd">
<svg version="1.0" xmlns="http://www.w3.org/2000/svg"
 width="1280.000000pt" height="467.000000pt" viewBox="0 0 1280.000000 467.000000"
 preserveAspectRatio="xMidYMid meet">

<g transform="translate(0.000000,467.000000) scale(0.100000,-0.100000)"
fill="#000000" stroke="none">
<path d="M2090 4656 c-220 -26 -423 -76 -604 -148 -795 -316 -1333 -996 -1462
-1848 -25 -160 -25 -493 0 -648 40 -256 112 -487 221 -707 111 -225 242 -411
414 -588 382 -393 858 -629 1406 -697 131 -17 429 -14 570 5 444 59 877 253
1220 547 103 88 240 227 232 235 -2 2 -27 -1 -56 -7 -323 -61 -652 -11 -986
150 -470 226 -763 605 -847 1095 -26 157 -21 427 11 576 44 203 114 368 211
498 222 296 558 475 935 497 325 19 638 -101 873 -335 242 -240 373 -549 422
-996 7 -64 8 -45 5 95 -4 205 -24 355 -70 536 -234 913 -982 1588 -1915 1729
-147 22 -437 27 -580 11z m-885 -2080 c222 -109 217 -419 -8 -538 -34 -19 -58
-23 -127 -23 -73 0 -92 4 -136 27 -102 53 -164 154 -164 266 0 68 14 116 48
166 87 126 249 169 387 102z"/>
<path d="M6208 3604 c-360 -56 -680 -292 -850 -629 -57 -112 -104 -238 -136
-363 -25 -100 -27 -121 -27 -322 0 -189 3 -228 23 -319 97 -431 326 -734 697
-919 205 -102 349 -136 575 -136 170 0 260 14 412 64 251 84 435 219 576 423
94 136 182 338 182 418 l0 29 -326 -2 -326 -3 -18 -53 c-28 -79 -65 -136 -125
-196 -167 -164 -417 -190 -665 -69 -103 50 -213 160 -263 263 -147 300 -128
831 38 1077 90 134 275 223 462 223 104 0 172 -14 249 -52 162 -78 289 -265
296 -435 l3 -58 -467 -3 -468 -2 0 -230 0 -230 811 0 812 0 -6 133 c-10 234
-51 422 -134 616 -165 387 -387 610 -717 723 -191 65 -408 84 -608 52z"/>
<path d="M8775 3594 c-235 -44 -426 -141 -560 -286 -110 -118 -165 -242 -187
-414 -34 -266 77 -517 285 -649 145 -91 315 -145 697 -221 151 -30 311 -66
356 -80 139 -44 193 -109 194 -233 0 -96 -16 -138 -80 -202 -95 -95 -208 -135
-385 -133 -305 3 -469 118 -535 378 l-18 71 -286 3 -286 2 0 -50 c0 -164 112
-410 254 -558 145 -152 335 -246 584 -289 140 -24 474 -24 597 0 201 40 316
89 437 185 152 122 253 266 300 429 33 114 33 325 0 438 -79 274 -249 414
-612 507 -63 16 -232 49 -375 74 -143 24 -278 49 -299 55 -107 29 -200 90
-233 153 -24 46 -22 141 5 193 44 84 131 146 249 179 87 24 279 21 364 -5 110
-34 196 -107 248 -209 17 -33 51 -166 51 -198 0 -2 122 -4 271 -4 l272 0 -5
93 c-4 65 -15 120 -37 187 -93 287 -308 468 -669 562 -108 28 -132 31 -317 34
-147 2 -221 -1 -280 -12z"/>
<path d="M11402 3595 c-117 -18 -261 -56 -335 -89 -264 -116 -436 -376 -463
-698 l-7 -78 295 0 296 0 4 58 c6 77 45 160 109 227 84 89 184 125 348 125
287 0 478 -152 442 -352 -24 -137 -117 -205 -349 -253 -41 -8 -178 -28 -305
-45 -326 -41 -463 -81 -625 -180 -167 -103 -270 -228 -329 -399 -29 -86 -33
-107 -33 -206 0 -138 19 -227 70 -334 78 -161 184 -265 355 -347 188 -89 366
-121 591 -104 71 5 157 16 190 24 136 33 296 112 430 212 l59 44 26 -82 c14
-46 31 -93 38 -105 l12 -23 289 0 290 0 0 58 c0 31 -8 93 -16 137 -13 66 -17
210 -24 835 -8 716 -12 812 -41 960 -26 135 -75 239 -159 340 -91 108 -265
208 -447 257 -92 25 -114 26 -358 29 -185 2 -287 -1 -353 -11z m723 -1537 c-4
-117 -11 -242 -16 -278 -35 -227 -270 -374 -599 -374 -106 0 -134 4 -181 22
-69 27 -140 88 -177 150 -24 42 -27 57 -27 137 0 75 4 97 24 135 76 145 172
199 446 250 271 51 472 115 500 161 4 5 13 9 22 9 13 0 14 -25 8 -212z"/>
<path d="M3300 3074 c-167 -36 -289 -136 -374 -307 -68 -136 -97 -260 -103
-438 -8 -225 22 -394 97 -539 119 -228 333 -376 635 -442 93 -20 343 -17 440
6 227 52 414 174 551 359 48 65 57 90 79 222 8 50 17 102 20 118 l5 27 -810 0
-810 0 0 235 0 235 471 0 472 0 -6 66 c-7 98 -70 219 -156 304 -141 140 -323
195 -511 154z"/>
</g>
</svg>
