<?xml version="1.0" standalone="no"?>
<!DOCTYPE svg PUBLIC "-//W3C//DTD SVG 20010904//EN"
 "http://www.w3.org/TR/2001/REC-SVG-20010904/DTD/svg10.dtd">
<svg version="1.0" xmlns="http://www.w3.org/2000/svg"
 width="1280.000000pt" height="533.000000pt" viewBox="0 0 1280.000000 533.000000"
 preserveAspectRatio="xMidYMid meet">

<g transform="translate(0.000000,533.000000) scale(0.100000,-0.100000)"
fill="#000000" stroke="none">
<path d="M2808 4883 c-8 -10 -194 -472 -413 -1028 -219 -555 -408 -1029 -421
-1052 -52 -90 -153 -147 -284 -159 l-70 -7 0 -58 0 -59 370 0 370 0 0 59 0 58
-52 6 c-64 8 -134 42 -162 80 -39 52 -28 107 66 342 l84 210 478 0 478 0 105
-268 c77 -196 103 -275 99 -293 -10 -37 -81 -65 -183 -72 l-83 -5 0 -58 0 -59
470 0 470 0 0 60 0 60 -88 0 c-114 0 -190 19 -220 57 -13 15 -213 510 -446
1098 -233 589 -431 1078 -440 1088 -11 12 -31 17 -64 17 -34 0 -54 -5 -64 -17z
m177 -933 c114 -289 210 -531 212 -537 4 -10 -84 -13 -421 -13 -234 0 -426 2
-426 5 0 4 345 883 405 1033 10 24 19 42 20 40 2 -2 96 -239 210 -528z"/>
<path d="M430 4749 l0 -66 158 -6 c247 -9 302 -33 322 -136 12 -65 13 -2620 1
-2695 -10 -58 -47 -98 -108 -116 -21 -7 -113 -14 -205 -17 l-168 -6 0 -73 0
-74 1245 0 c909 0 1245 3 1245 11 0 15 118 1145 124 1187 l5 32 -59 0 c-68 0
-64 5 -75 -110 -47 -513 -218 -797 -549 -911 -147 -51 -251 -61 -616 -57 -290
3 -329 5 -353 20 -55 37 -52 -44 -52 1443 0 1302 1 1382 18 1408 44 67 118 86
385 94 l202 6 0 66 0 66 -760 0 -760 0 0 -66z"/>
<path d="M9080 4748 l0 -68 83 0 c222 0 351 -38 419 -123 48 -59 908 -1362
908 -1375 0 -12 -783 -1172 -834 -1235 -105 -131 -305 -218 -538 -233 l-98 -7
0 -74 0 -73 109 0 109 0 -28 -132 c-59 -280 -128 -441 -240 -561 -78 -83 -149
-129 -262 -169 -161 -57 -199 -60 -738 -65 -542 -4 -565 -2 -604 50 -21 28
-21 34 -21 720 l0 692 230 3 c378 5 516 -20 605 -107 31 -30 54 -65 68 -101
22 -60 42 -200 42 -292 l0 -58 60 0 60 0 0 630 0 630 -60 0 -60 0 0 -57 c0
-95 -19 -229 -40 -285 -26 -70 -67 -118 -129 -151 -86 -47 -170 -57 -492 -57
l-290 0 3 623 c2 491 6 627 16 648 29 55 18 54 539 57 526 3 609 -3 760 -53
200 -67 322 -200 392 -430 20 -62 58 -266 76 -397 l6 -48 60 0 60 0 -7 48 c-3
26 -34 268 -67 537 l-62 490 -1107 3 c-610 1 -1108 6 -1108 10 0 17 -80 949
-85 1000 l-6 52 -1459 0 -1459 0 -5 -32 c-3 -18 -21 -238 -41 -488 -19 -250
-38 -476 -41 -502 l-6 -48 59 0 60 0 12 133 c42 443 118 624 299 716 105 54
302 81 582 81 194 0 265 -11 300 -45 l25 -25 0 -1379 0 -1379 -25 -27 c-58
-63 -126 -76 -425 -84 l-240 -6 -3 -70 -3 -70 911 0 910 0 0 71 0 71 -247 6
c-310 6 -383 22 -430 94 -17 26 -18 105 -18 1393 0 1284 1 1367 17 1393 10 14
28 32 40 39 33 17 353 23 520 9 228 -19 350 -61 437 -150 107 -110 151 -268
196 -698 l7 -63 -176 0 -176 0 0 -74 0 -74 178 -4 c153 -3 183 -7 224 -25 91
-41 83 86 86 -1383 2 -712 0 -1329 -3 -1370 -6 -66 -11 -78 -39 -106 -45 -45
-89 -55 -278 -61 l-168 -6 0 -73 0 -74 1375 0 1375 0 5 23 c3 12 41 245 85
517 44 272 82 505 85 518 l5 22 405 0 405 0 0 74 0 73 -57 7 c-160 18 -282
149 -240 257 15 39 706 1069 716 1069 9 0 772 -1157 778 -1179 13 -49 -66
-109 -177 -135 -36 -9 -80 -16 -97 -16 l-33 0 0 -72 0 -73 660 0 660 0 0 73 0
72 -122 0 c-205 0 -309 34 -383 123 -28 34 -607 905 -963 1449 l-83 126 342
499 c187 274 357 517 376 540 103 128 297 209 546 228 l87 7 0 69 0 69 -575 0
-575 0 0 -68 0 -69 66 -12 c72 -13 135 -40 172 -75 54 -48 78 -146 51 -199
-23 -42 -571 -847 -577 -847 -4 0 -150 216 -326 480 -215 323 -318 487 -318
505 0 60 94 117 226 136 l76 11 0 67 0 66 -660 0 -660 0 0 -67z"/>
</g>
</svg>
