<?xml version="1.0" standalone="no"?>
<!DOCTYPE svg PUBLIC "-//W3C//DTD SVG 20010904//EN"
 "http://www.w3.org/TR/2001/REC-SVG-20010904/DTD/svg10.dtd">
<svg version="1.0" xmlns="http://www.w3.org/2000/svg"
 width="1862.000000pt" height="892.000000pt" viewBox="0 0 1862.000000 892.000000"
 preserveAspectRatio="xMidYMid meet">

<g transform="translate(0.000000,892.000000) scale(0.100000,-0.100000)"
fill="#000000" stroke="none">
<path d="M4569 7124 c-37 -24 -48 -45 -124 -244 -37 -96 -208 -526 -380 -955
-321 -799 -397 -993 -505 -1290 -106 -290 -169 -384 -303 -450 -67 -33 -108
-43 -249 -60 l-48 -6 0 -80 0 -79 495 0 495 0 0 79 0 80 -47 6 c-201 28 -290
114 -263 255 5 29 26 91 46 139 20 47 60 147 89 221 60 155 75 188 102 213 18
16 61 17 642 15 l623 -3 79 -200 c213 -536 215 -544 156 -589 -40 -30 -94 -43
-220 -52 l-97 -7 0 -79 0 -79 303 6 c426 9 811 11 887 5 l65 -5 3 78 3 77 -98
0 c-196 1 -288 27 -335 97 -33 47 9 -56 -367 903 -176 448 -409 1042 -519
1320 -109 278 -211 537 -226 576 -15 39 -38 82 -51 94 -33 31 -118 38 -156 14z
m225 -1278 c152 -384 276 -700 276 -702 0 -2 -255 -4 -566 -4 -535 0 -566 1
-561 18 2 9 125 321 272 692 147 371 271 686 277 700 8 20 11 22 18 10 4 -8
132 -329 284 -714z"/>
<path d="M1280 6902 l0 -99 203 1 c168 1 212 -2 261 -17 88 -27 131 -61 163
-126 l28 -56 0 -1780 0 -1780 -25 -49 c-31 -61 -77 -99 -155 -128 -52 -19 -86
-22 -267 -26 l-208 -4 0 -99 0 -99 1660 0 1659 0 5 33 c3 17 42 367 86 777 44
410 83 766 86 793 l6 47 -81 0 c-60 0 -81 -3 -81 -13 0 -7 -9 -86 -20 -175
-82 -661 -280 -1002 -670 -1156 -80 -32 -247 -71 -360 -85 -112 -14 -882 -14
-933 0 -50 13 -103 61 -119 107 -11 30 -13 376 -13 1827 0 2027 -8 1846 82
1924 86 76 199 95 516 85 l217 -7 0 101 0 102 -1020 0 -1020 0 0 -98z"/>
<path d="M12882 6903 l3 -98 185 -6 c200 -7 272 -21 350 -66 97 -57 147 -119
403 -503 528 -790 937 -1413 937 -1425 0 -14 -46 -83 -346 -525 -99 -146 -277
-407 -394 -580 -275 -406 -343 -501 -408 -572 -62 -66 -161 -135 -259 -179
-61 -28 -76 -31 -160 -30 -90 2 -93 1 -99 -23 -3 -13 -13 -27 -22 -31 -10 -4
-74 -9 -144 -12 l-128 -6 0 -104 0 -103 125 0 c69 0 125 -2 125 -4 0 -15 -45
-218 -65 -294 -130 -491 -404 -760 -850 -837 -163 -28 -409 -36 -935 -33 -451
3 -519 5 -551 19 -50 23 -85 64 -98 115 -8 29 -11 329 -11 935 l0 891 398 -5
c434 -6 493 -12 606 -65 91 -43 150 -101 190 -185 45 -95 58 -162 65 -342 l6
-150 78 -3 77 -3 0 846 0 845 -79 0 -78 0 -6 -147 c-3 -86 -12 -173 -22 -208
-40 -149 -116 -256 -224 -313 -113 -61 -144 -65 -598 -69 l-413 -5 0 796 c0
539 4 811 11 846 15 70 60 114 131 130 39 9 221 11 668 8 515 -4 631 -7 715
-21 361 -61 553 -192 693 -472 65 -130 114 -327 150 -605 l18 -135 77 -3 c74
-3 77 -2 77 20 0 13 -39 337 -87 721 l-87 697 -1488 0 -1488 0 -4 23 c-3 12
-28 301 -56 642 -28 341 -53 635 -56 653 l-5 32 -1947 -2 -1947 -3 -57 -670
c-31 -368 -57 -689 -57 -712 l-1 -43 78 0 79 0 7 113 c29 478 113 773 260 910
100 93 261 161 461 193 139 23 692 27 762 6 55 -17 108 -67 122 -117 8 -29 11
-541 11 -1791 0 -1918 3 -1809 -59 -1884 -16 -20 -55 -48 -87 -64 -99 -49
-185 -58 -499 -54 l-280 3 0 -100 0 -100 1208 -3 1207 -2 0 105 0 105 -307 0
c-336 0 -410 9 -488 54 -55 33 -101 86 -114 133 -14 51 -15 3553 -1 3602 14
49 55 88 114 108 75 27 610 26 770 0 287 -48 472 -158 564 -335 71 -136 129
-393 147 -652 3 -47 8 -100 11 -117 l5 -33 -226 0 -225 0 0 -99 0 -100 203 1
c177 1 210 -2 265 -20 84 -27 129 -64 158 -127 l24 -52 -2 -1779 -3 -1779 -21
-40 c-11 -22 -40 -55 -63 -72 -73 -56 -122 -66 -353 -71 l-208 -4 0 -99 0 -99
1835 0 c1009 0 1835 2 1835 4 0 2 49 307 110 677 60 371 110 677 110 681 0 4
249 9 553 10 l552 3 0 100 0 100 -70 8 c-218 24 -359 191 -300 356 8 23 99
164 203 314 104 150 312 457 462 682 150 226 275 412 278 415 2 3 9 -3 16 -14
6 -10 236 -357 510 -770 275 -413 504 -763 510 -778 34 -89 -128 -191 -326
-205 l-78 -6 0 -103 0 -104 878 2 877 3 0 100 0 100 -195 6 c-167 5 -204 9
-259 28 -138 48 -203 112 -368 364 -69 106 -267 400 -439 653 -173 254 -378
561 -456 682 -179 278 -313 481 -332 507 -14 19 -13 24 24 75 42 58 420 613
686 1007 177 264 242 345 334 420 76 62 215 133 315 162 91 26 264 51 354 51
l71 0 0 100 0 100 -765 0 -765 0 0 -95 c0 -68 4 -97 13 -99 6 -2 43 -8 81 -14
185 -29 322 -165 303 -303 -8 -58 -55 -146 -137 -259 -38 -52 -193 -277 -345
-500 -291 -429 -303 -446 -308 -439 -2 2 -28 47 -57 99 -74 129 -504 768 -705
1045 -63 87 -94 148 -95 182 0 35 63 97 127 126 62 27 190 57 248 57 l35 0 0
100 0 100 -880 0 -881 0 3 -97z"/>
</g>
</svg>
